<?xml version="1.0" encoding="iso-8859-1"?>
<!-- Generator: Adobe Illustrator 15.1.0, SVG Export Plug-In . SVG Version: 6.00 Build 0)  -->
<!DOCTYPE svg PUBLIC "-//W3C//DTD SVG 1.1//EN" "http://www.w3.org/Graphics/SVG/1.1/DTD/svg11.dtd">
<svg version="1.1" id="Layer_1" xmlns="http://www.w3.org/2000/svg" xmlns:xlink="http://www.w3.org/1999/xlink" x="0px" y="0px"
	 width="49.6px" height="52px" viewBox="0 0 49.6 52" style="enable-background:new 0 0 49.6 52;" xml:space="preserve">
<path style="fill:#FFFFFF;" d="M26.866,23.635V52H31V40.04h5.167V52H49.6V14.814L26.866,23.635z M36.167,35.36H31v-7.8h5.167V35.36z
	 M45.983,47.84h-5.167v-7.8h5.167V47.84z M45.983,35.36h-5.167v-7.8h5.167V35.36z"/>
<path style="fill:#FFFFFF;" d="M0,0v52h14.983V40.04h5.167V52h4.65V0H0z M9.816,47.84H4.65v-7.8h5.167V47.84z M9.816,35.36H4.65
	v-7.8h5.167V35.36z M9.816,23.4H4.65v-7.8h5.167V23.4z M9.816,11.44H4.65v-7.8h5.167V11.44z M20.15,35.36h-5.167v-7.8h5.167V35.36z
	 M20.15,23.4h-5.167v-7.8h5.167V23.4z M20.15,11.44h-5.167v-7.8h5.167V11.44z"/>
</svg>
