<?xml version="1.0" encoding="iso-8859-1"?>
<!-- Generator: Adobe Illustrator 15.1.0, SVG Export Plug-In . SVG Version: 6.00 Build 0)  -->
<!DOCTYPE svg PUBLIC "-//W3C//DTD SVG 1.1//EN" "http://www.w3.org/Graphics/SVG/1.1/DTD/svg11.dtd">
<svg version="1.1" id="Layer_1" xmlns="http://www.w3.org/2000/svg" xmlns:xlink="http://www.w3.org/1999/xlink" x="0px" y="0px"
	 width="38.089px" height="29.755px" viewBox="0 0 38.089 29.755" style="enable-background:new 0 0 38.089 29.755;"
	 xml:space="preserve">
<path style="fill:#FFFFFF;" d="M4.931,2.127C5.274,0.648,6.75-0.271,8.226,0.073c1.477,0.345,2.395,1.823,2.051,3.302
	S8.458,5.773,6.981,5.429S4.587,3.606,4.931,2.127z"/>
<path style="fill:#FFFFFF;" d="M4.771,28.446c0,0.723,0.585,1.31,1.307,1.31c0.722,0,1.307-0.586,1.307-1.31v-5.751
	c-0.79-0.015-1.712-0.111-2.614-0.26V28.446z"/>
<path style="fill:#FFFFFF;" d="M7.822,28.446c0,0.723,0.585,1.31,1.307,1.31c0.722,0,1.307-0.586,1.307-1.31v-6.011
	c-0.901,0.149-1.825,0.246-2.614,0.262V28.446z"/>
<path style="fill:#FFFFFF;" d="M12.902,9.614c-0.584-0.978-1.29-1.848-2.169-2.49c-0.876-0.642-1.942-1.04-3.129-1.037
	C6.417,6.084,5.351,6.482,4.474,7.124c-1.318,0.966-2.25,2.431-2.958,4.033c-0.705,1.606-1.18,3.369-1.5,4.983
	c-0.091,0.461,0.208,0.909,0.668,1c0.056,0.011,0.111,0.016,0.166,0.016c0.397,0,0.752-0.28,0.833-0.686
	c0.4-2.038,1.076-4.306,2.08-5.984c0.26-0.438,0.542-0.832,0.842-1.176c0.1-0.152,0.229-0.282,0.375-0.395
	C4.984,8.913,4.986,8.91,4.989,8.908c0,0,0,0.001,0,0.002C5.323,8.656,5.747,8.496,6.13,8.385c0.561-0.159,1.043-0.201,1.048-0.202
	l0.088-0.007l0.337,0.674L7.94,8.176l0.089,0.007c0.005,0.001,0.487,0.042,1.048,0.202c0.383,0.11,0.808,0.271,1.141,0.524
	c0,0,0-0.001,0-0.002v0c0.006,0.005,0.012,0.011,0.018,0.016c0.14,0.109,0.264,0.235,0.361,0.38c0.588,0.676,1.107,1.553,1.539,2.54
	c0.634,1.442,1.087,3.1,1.388,4.628c0.091,0.461,0.538,0.761,0.999,0.67c0.46-0.091,0.76-0.54,0.668-1
	C14.763,13.987,14.066,11.572,12.902,9.614z"/>
<path style="fill:#FFFFFF;" d="M10.196,9.232c-0.299-0.28-0.763-0.476-1.19-0.595C8.609,8.525,8.253,8.473,8.094,8.454L7.721,9.202
	L7.604,9.436l-0.49-0.981c-0.159,0.02-0.516,0.07-0.912,0.183c-0.428,0.12-0.892,0.315-1.19,0.595
	C4.936,9.304,4.87,9.38,4.819,9.462c-0.085,0.134-0.12,0.282-0.12,0.453c-0.008,0.594,0.462,1.384,0.469,2.109
	c0,0.269-0.073,0.539-0.271,0.768c-0.27,0.31-0.898,1.427-1.556,2.723c-0.661,1.299-1.364,2.792-1.819,3.892
	c-0.304,0.727-0.495,1.309-0.49,1.472c0,0.007,0,0.013,0.001,0.017c0,0.033,0.044,0.11,0.159,0.196
	c0.112,0.086,0.283,0.18,0.496,0.272c0.426,0.186,1.023,0.369,1.695,0.528c0.438,0.104,0.91,0.198,1.388,0.277
	c0.903,0.151,1.831,0.25,2.614,0.266c0.074,0.001,0.146,0.002,0.218,0.002l0,0c0.071,0,0.144-0.001,0.218-0.002
	c0.783-0.016,1.711-0.115,2.614-0.266c0.294-0.049,0.587-0.104,0.87-0.163c1.23-0.254,2.311-0.605,2.708-0.915
	c0.115-0.086,0.159-0.163,0.159-0.194c0-0.005,0-0.012,0-0.018c0.005-0.164-0.186-0.745-0.489-1.472
	c-0.304-0.733-0.717-1.642-1.155-2.55c-0.872-1.813-1.857-3.648-2.22-4.065c-0.198-0.229-0.271-0.499-0.271-0.768
	c0.007-0.726,0.477-1.515,0.469-2.109c0-0.17-0.035-0.318-0.12-0.453C10.337,9.38,10.272,9.304,10.196,9.232z"/>
<path style="fill:#FFFFFF;" d="M35.258,6.656c-0.297-0.147-0.569-0.216-0.787-0.247C34.374,6.377,34.27,6.36,34.161,6.36h-0.077
	c-0.002,0.01-0.003,0.02-0.006,0.031c-0.067,0.385-0.263,1.567-0.192,1.864c0.066,0.274-0.412-0.294-0.744-0.582
	c-0.1-0.086-0.186-0.147-0.24-0.152c0,0-0.738,1.999-1.166,2.627c-0.005,0.008-0.011,0.015-0.016,0.022
	c-0.004,0.03-0.014,0.042-0.032,0.032c-0.018,0.01-0.028-0.001-0.032-0.032c-0.005-0.007-0.011-0.014-0.016-0.022
	c-0.428-0.629-1.166-2.627-1.166-2.627c-0.054,0.005-0.141,0.066-0.241,0.153c-0.331,0.288-0.809,0.855-0.743,0.581
	c0.071-0.297-0.125-1.479-0.192-1.864C29.296,6.38,29.294,6.37,29.293,6.36h-0.078c-0.109,0-0.213,0.018-0.311,0.049
	c-0.217,0.031-0.49,0.1-0.788,0.247c-0.688,0.334-1.431,1.066-1.95,2.363c-0.526,1.302-0.879,3.185-0.881,6.028
	c0,0.734,0.024,1.534,0.077,2.403c0.032,0.533,0.483,0.945,1.021,0.945c0.02,0,0.04-0.001,0.061-0.002
	c0.564-0.033,0.996-0.507,0.962-1.061c-0.05-0.835-0.073-1.595-0.073-2.287c-0.004-3.038,0.448-4.744,0.892-5.635v4.122v2.376
	v12.295c0,0.856,0.708,1.551,1.583,1.551s1.583-0.694,1.583-1.551V16.879h0.593v11.325c0,0.856,0.708,1.551,1.583,1.551
	s1.583-0.694,1.583-1.551V15.91v-2.376V9.418c0.076,0.152,0.152,0.327,0.227,0.531c0.361,0.98,0.665,2.588,0.663,5.099
	c0,0.692-0.022,1.452-0.072,2.286c-0.033,0.554,0.398,1.028,0.963,1.061c0.02,0.001,0.041,0.002,0.061,0.002
	c0.538,0,0.989-0.412,1.021-0.945c0.051-0.87,0.075-1.669,0.076-2.403c-0.006-3.787-0.623-5.882-1.464-7.143
	C36.205,7.279,35.713,6.878,35.258,6.656z"/>
<path style="fill:#FFFFFF;" d="M32.921,6.36h-2.467c0.505,0.901,1.089,2.773,1.233,3.524C31.833,9.133,32.416,7.261,32.921,6.36z"/>
<path style="fill:#FFFFFF;" d="M28.884,2.183c0.36-1.518,1.909-2.462,3.458-2.108c1.549,0.353,2.512,1.87,2.151,3.388
	s-1.909,2.462-3.458,2.108S28.523,3.7,28.884,2.183z"/>
<path style="fill:#FFFFFF;" d="M4.931,2.127C5.274,0.648,6.75-0.271,8.226,0.073c1.477,0.345,2.395,1.823,2.051,3.302
	S8.458,5.773,6.981,5.429S4.587,3.606,4.931,2.127z"/>
<path style="fill:#FFFFFF;" d="M4.771,28.446c0,0.723,0.585,1.31,1.307,1.31c0.722,0,1.307-0.586,1.307-1.31v-5.751
	c-0.79-0.015-1.712-0.111-2.614-0.26V28.446z"/>
<path style="fill:#FFFFFF;" d="M7.822,28.446c0,0.723,0.585,1.31,1.307,1.31c0.722,0,1.307-0.586,1.307-1.31v-6.011
	c-0.901,0.149-1.825,0.246-2.614,0.262V28.446z"/>
<path style="fill:#FFFFFF;" d="M12.902,9.614c-0.584-0.978-1.29-1.848-2.169-2.49c-0.876-0.642-1.942-1.04-3.129-1.037
	C6.417,6.084,5.351,6.482,4.474,7.124c-1.318,0.966-2.25,2.431-2.958,4.033c-0.705,1.606-1.18,3.369-1.5,4.983
	c-0.091,0.461,0.208,0.909,0.668,1c0.056,0.011,0.111,0.016,0.166,0.016c0.397,0,0.752-0.28,0.833-0.686
	c0.4-2.038,1.076-4.306,2.08-5.984c0.26-0.438,0.542-0.832,0.842-1.176c0.1-0.152,0.229-0.282,0.375-0.395
	C4.984,8.913,4.986,8.91,4.989,8.908c0,0,0,0.001,0,0.002C5.323,8.656,5.747,8.496,6.13,8.385c0.561-0.159,1.043-0.201,1.048-0.202
	l0.088-0.007l0.337,0.674L7.94,8.176l0.089,0.007c0.005,0.001,0.487,0.042,1.048,0.202c0.383,0.11,0.808,0.271,1.141,0.524
	c0,0,0-0.001,0-0.002v0c0.006,0.005,0.012,0.011,0.018,0.016c0.14,0.109,0.264,0.235,0.361,0.38c0.588,0.676,1.107,1.553,1.539,2.54
	c0.634,1.442,1.087,3.1,1.388,4.628c0.091,0.461,0.538,0.761,0.999,0.67c0.46-0.091,0.76-0.54,0.668-1
	C14.763,13.987,14.066,11.572,12.902,9.614z"/>
<path style="fill:#FFFFFF;" d="M10.196,9.232c-0.299-0.28-0.763-0.476-1.19-0.595C8.609,8.525,8.253,8.473,8.094,8.454L7.721,9.202
	L7.604,9.436l-0.49-0.981c-0.159,0.02-0.516,0.07-0.912,0.183c-0.428,0.12-0.892,0.315-1.19,0.595
	C4.936,9.304,4.87,9.38,4.819,9.462c-0.085,0.134-0.12,0.282-0.12,0.453c-0.008,0.594,0.462,1.384,0.469,2.109
	c0,0.269-0.073,0.539-0.271,0.768c-0.27,0.31-0.898,1.427-1.556,2.723c-0.661,1.299-1.364,2.792-1.819,3.892
	c-0.304,0.727-0.495,1.309-0.49,1.472c0,0.007,0,0.013,0.001,0.017c0,0.033,0.044,0.11,0.159,0.196
	c0.112,0.086,0.283,0.18,0.496,0.272c0.426,0.186,1.023,0.369,1.695,0.528c0.438,0.104,0.91,0.198,1.388,0.277
	c0.903,0.151,1.831,0.25,2.614,0.266c0.074,0.001,0.146,0.002,0.218,0.002l0,0c0.071,0,0.144-0.001,0.218-0.002
	c0.783-0.016,1.711-0.115,2.614-0.266c0.294-0.049,0.587-0.104,0.87-0.163c1.23-0.254,2.311-0.605,2.708-0.915
	c0.115-0.086,0.159-0.163,0.159-0.194c0-0.005,0-0.012,0-0.018c0.005-0.164-0.186-0.745-0.489-1.472
	c-0.304-0.733-0.717-1.642-1.155-2.55c-0.872-1.813-1.857-3.648-2.22-4.065c-0.198-0.229-0.271-0.499-0.271-0.768
	c0.007-0.726,0.477-1.515,0.469-2.109c0-0.17-0.035-0.318-0.12-0.453C10.337,9.38,10.272,9.304,10.196,9.232z"/>
<path style="fill:#FFFFFF;" d="M35.258,6.656c-0.297-0.147-0.569-0.216-0.787-0.247C34.374,6.377,34.27,6.36,34.161,6.36h-0.077
	c-0.002,0.01-0.003,0.02-0.006,0.031c-0.067,0.385-0.263,1.567-0.192,1.864c0.066,0.274-0.412-0.294-0.744-0.582
	c-0.1-0.086-0.186-0.147-0.24-0.152c0,0-0.738,1.999-1.166,2.627c-0.005,0.008-0.011,0.015-0.016,0.022
	c-0.004,0.03-0.014,0.042-0.032,0.032c-0.018,0.01-0.028-0.001-0.032-0.032c-0.005-0.007-0.011-0.014-0.016-0.022
	c-0.428-0.629-1.166-2.627-1.166-2.627c-0.054,0.005-0.141,0.066-0.241,0.153c-0.331,0.288-0.809,0.855-0.743,0.581
	c0.071-0.297-0.125-1.479-0.192-1.864C29.296,6.38,29.294,6.37,29.293,6.36h-0.078c-0.109,0-0.213,0.018-0.311,0.049
	c-0.217,0.031-0.49,0.1-0.788,0.247c-0.688,0.334-1.431,1.066-1.95,2.363c-0.526,1.302-0.879,3.185-0.881,6.028
	c0,0.734,0.024,1.534,0.077,2.403c0.032,0.533,0.483,0.945,1.021,0.945c0.02,0,0.04-0.001,0.061-0.002
	c0.564-0.033,0.996-0.507,0.962-1.061c-0.05-0.835-0.073-1.595-0.073-2.287c-0.004-3.038,0.448-4.744,0.892-5.635v4.122v2.376
	v12.295c0,0.856,0.708,1.551,1.583,1.551s1.583-0.694,1.583-1.551V16.879h0.593v11.325c0,0.856,0.708,1.551,1.583,1.551
	s1.583-0.694,1.583-1.551V15.91v-2.376V9.418c0.076,0.152,0.152,0.327,0.227,0.531c0.361,0.98,0.665,2.588,0.663,5.099
	c0,0.692-0.022,1.452-0.072,2.286c-0.033,0.554,0.398,1.028,0.963,1.061c0.02,0.001,0.041,0.002,0.061,0.002
	c0.538,0,0.989-0.412,1.021-0.945c0.051-0.87,0.075-1.669,0.076-2.403c-0.006-3.787-0.623-5.882-1.464-7.143
	C36.205,7.279,35.713,6.878,35.258,6.656z"/>
<path style="fill:#FFFFFF;" d="M32.921,6.36h-2.467c0.505,0.901,1.089,2.773,1.233,3.524C31.833,9.133,32.416,7.261,32.921,6.36z"/>
<path style="fill:#FFFFFF;" d="M28.884,2.183c0.36-1.518,1.909-2.462,3.458-2.108c1.549,0.353,2.512,1.87,2.151,3.388
	s-1.909,2.462-3.458,2.108S28.523,3.7,28.884,2.183z"/>
</svg>
